<svg width="655" height="467" viewBox="0 0 655 467" fill="none" xmlns="http://www.w3.org/2000/svg">
<path d="M631.312 98.2567L636.086 100.651C636.086 100.651 661.943 165.683 653.192 181.243C644.44 196.803 616.991 225.929 616.991 225.929L611.82 211.167L632.97 165.178L631.312 98.2567Z" fill="#575A89"/>
<path opacity="0.1" d="M631.312 98.2567L636.086 100.651C636.086 100.651 661.943 165.683 653.192 181.243C644.44 196.803 616.991 225.929 616.991 225.929L611.82 211.167L632.97 165.178L631.312 98.2567Z" fill="black"/>
<path d="M626.141 423.421C626.141 423.421 632.903 438.981 629.323 440.178C625.743 441.375 621.367 441.375 616.991 441.375C612.615 441.375 607.444 439.779 606.648 438.183C605.853 436.587 609.831 426.214 609.831 426.214L626.141 423.421Z" fill="#575A89"/>
<path d="M535.043 431.4C535.043 431.4 539.419 445.365 537.43 446.163C535.441 446.961 529.076 450.551 525.496 449.354C521.915 448.157 516.346 445.365 515.153 444.168C513.959 442.971 515.153 436.587 515.153 436.587L520.722 428.608L535.043 431.4Z" fill="#575A89"/>
<path d="M613.411 223.934L619.113 225.929C619.113 225.929 620.571 239.494 618.98 244.281C617.389 249.069 613.809 283.78 615.798 290.961C617.787 298.143 616.593 309.713 616.593 309.713C616.593 309.713 628.528 348.813 626.141 357.191C623.754 365.57 624.152 377.539 626.539 383.523C628.925 389.508 630.914 391.902 629.721 396.69C628.528 401.477 626.141 403.871 628.528 407.861C630.914 411.851 635.688 413.048 633.301 416.638C630.914 420.229 628.528 423.022 629.323 425.416C630.119 427.81 608.239 432.198 606.25 428.608C606.25 428.608 612.615 423.022 606.25 419.83C599.885 416.638 601.875 404.669 601.875 404.669C601.875 404.669 590.736 358.787 591.134 355.196C591.532 351.606 573.63 295.749 573.63 295.749C573.63 295.749 547.375 375.544 545.784 379.135C544.193 382.726 547.773 391.503 545.784 393.897C543.795 396.291 546.579 402.275 543.795 404.669C541.01 407.063 548.568 415.84 543.795 419.032C539.021 422.224 536.634 432.198 537.032 434.193C537.43 436.188 517.142 433.794 517.142 431.001C517.142 428.209 517.539 425.815 515.55 421.027C513.562 416.239 512.368 413.048 513.959 411.452C515.551 409.856 516.744 407.861 515.153 402.275C513.562 396.69 517.54 379.534 516.346 376.342C515.153 373.15 515.55 351.606 515.55 351.606C515.55 351.606 519.529 320.087 518.335 314.9C517.142 309.713 518.335 308.516 518.733 306.521C519.131 304.527 521.518 282.982 523.109 279.79C524.7 276.598 526.689 221.939 535.839 219.146C544.988 216.353 613.411 223.934 613.411 223.934Z" fill="#2F2E41"/>
<path d="M616.593 437.784C616.593 437.784 630.914 435.39 631.71 437.784C632.506 440.178 634.893 458.93 629.323 459.329C623.754 459.728 614.207 460.925 612.615 457.334C611.024 453.743 603.466 451.349 603.466 451.349C603.466 451.349 592.327 448.157 592.327 444.567C592.327 440.976 592.725 435.39 594.714 434.991C596.703 434.592 604.659 430.204 604.659 428.608C604.659 427.012 616.593 437.784 616.593 437.784Z" fill="#2F2E41"/>
<path d="M527.087 444.168C527.087 444.168 537.43 440.976 539.817 442.971C542.204 444.966 545.386 466.909 539.817 466.51C534.247 466.111 519.529 468.505 518.733 465.313C517.937 462.122 507.197 461.324 507.197 461.324C507.197 461.324 495.66 455.738 496.456 449.753C497.251 443.769 498.445 441.774 503.219 441.375C507.992 440.976 511.572 435.39 511.97 434.991C512.368 434.592 515.875 431.676 516.31 434.929C516.744 438.183 521.915 445.365 527.087 444.168Z" fill="#2F2E41"/>
<path d="M559.707 57.5613C573.109 57.5613 583.973 46.6651 583.973 33.2239C583.973 19.7827 573.109 8.88641 559.707 8.88641C546.305 8.88641 535.441 19.7827 535.441 33.2239C535.441 46.6651 546.305 57.5613 559.707 57.5613Z" fill="#A0616A"/>
<path d="M580.791 38.8095C580.791 38.8095 582.382 65.5408 588.349 67.9347C594.316 70.3285 558.116 70.3285 558.116 70.3285C558.116 70.3285 557.718 53.5716 552.547 49.5818C547.375 45.5921 580.791 38.8095 580.791 38.8095Z" fill="#A0616A"/>
<path d="M590.338 61.9501C590.338 61.9501 565.674 52.7737 556.922 67.1367C556.922 67.1367 529.076 80.3029 527.087 88.2824C525.098 96.2619 543.795 156.108 543.795 156.108C543.795 156.108 543.795 205.581 539.817 210.768C535.839 215.954 528.28 221.54 533.452 222.737C538.623 223.934 619.776 232.711 619.378 227.524C618.98 222.338 613.809 217.949 619.378 214.757C624.947 211.566 620.174 207.975 623.754 197.601C627.334 187.228 636.086 101.449 636.086 101.449C636.086 101.449 630.119 90.6763 628.925 89.4793C627.732 88.2824 590.338 61.9501 590.338 61.9501Z" fill="#575A89"/>
<path d="M519.131 236.701C519.131 236.701 503.616 271.811 517.142 276.598C530.667 281.386 529.872 239.494 529.872 239.494L519.131 236.701Z" fill="#A0616A"/>
<path d="M571.347 37.7502C569.94 34.9235 567.835 31.6625 564.689 31.8347C563.099 31.9217 561.727 32.9142 560.31 33.6427C558.893 34.3713 557.076 34.8229 555.78 33.8944C553.885 32.5363 554.472 29.315 552.777 27.7128C550.926 25.9636 547.202 26.9402 546.008 24.6882C545.37 23.4858 545.885 21.9939 545.607 20.6608C543.671 20.8267 541.721 20.5995 539.874 19.9927C538.078 19.2625 536.523 17.5708 536.573 15.6279C536.627 14.9659 536.812 14.3214 537.117 13.732C537.422 13.1426 537.841 12.6202 538.35 12.1955C540.796 9.96535 544.333 9.53769 547.351 8.18517C549.752 7.10883 551.84 5.43137 554.201 4.26707C558.263 2.26323 562.949 1.87464 567.463 2.22058C574.307 2.74513 581.228 5.02312 586.191 9.77874C591.154 14.5344 593.781 22.037 591.641 28.5779C590.428 32.2843 587.857 35.3997 586.423 39.0257C585.544 41.507 584.934 44.0763 584.605 46.689L583.598 52.8858C583.755 51.9214 581.643 49.5024 580.951 48.9268C579.441 47.6713 577.244 48.0973 575.841 46.9344C573.767 45.2143 572.567 40.2025 571.347 37.7502Z" fill="#2F2E41"/>
<path opacity="0.1" d="M536.237 85.4895L529.872 89.4793C529.872 89.4793 519.529 152.118 520.722 160.896C521.915 169.673 515.948 219.146 517.937 223.136C519.926 227.126 520.722 227.923 520.722 230.317C520.722 232.711 515.153 241.489 518.733 243.084C522.313 244.68 535.441 247.473 535.441 243.084C535.441 238.696 533.054 232.711 537.43 229.918C541.806 227.126 544.988 209.172 544.988 209.172C544.988 209.172 546.977 190.819 548.966 187.228C550.955 183.637 553.74 170.471 553.74 164.885C553.74 159.3 558.514 136.558 555.729 124.988C552.944 113.418 552.149 82.2977 536.237 85.4895Z" fill="black"/>
<path d="M533.452 84.2926L527.087 88.2823C527.087 88.2823 516.744 150.921 517.937 159.699C519.131 168.476 513.164 217.949 515.153 221.939C517.142 225.929 517.937 226.726 517.937 229.12C517.937 231.514 512.368 240.292 515.948 241.888C519.529 243.483 532.656 246.276 532.656 241.888C532.656 237.499 530.269 231.514 534.645 228.721C539.021 225.929 542.204 207.975 542.204 207.975C542.204 207.975 544.193 189.622 546.182 186.031C548.171 182.44 550.955 169.274 550.955 163.688C550.955 158.103 555.729 135.361 552.944 123.791C550.16 112.221 549.364 81.1008 533.452 84.2926Z" fill="#575A89"/>
<path d="M468.385 0H0V235.679H468.385V0Z" fill="#E6E6E6"/>
<path d="M446.878 19.1739H21.5074V216.505H446.878V19.1739Z" fill="white"/>
<path d="M29.8375 35.1866L28.7111 36.3164L85.8312 93.6034L103.754 75.6281L135.218 107.185L173.852 68.4382L239.569 134.349L269.441 104.389L334.759 169.9L371.402 133.15L438.548 200.492L439.674 199.363L371.402 130.891L334.759 167.641L269.441 102.13L239.569 132.089L173.852 66.1786L135.218 104.926L103.754 73.3686L85.8312 91.3447L29.8375 35.1866Z" fill="#FF8D28"/>
<path d="M176.64 78.0937C181.919 78.0937 186.199 73.8015 186.199 68.5067C186.199 63.212 181.919 58.9198 176.64 58.9198C171.361 58.9198 167.081 63.212 167.081 68.5067C167.081 73.8015 171.361 78.0937 176.64 78.0937Z" fill="#FF8D28"/>
<path d="M237.976 141.208C243.255 141.208 247.535 136.915 247.535 131.621C247.535 126.326 243.255 122.034 237.976 122.034C232.697 122.034 228.417 126.326 228.417 131.621C228.417 136.915 232.697 141.208 237.976 141.208Z" fill="#FF8D28"/>
<path d="M371.004 141.208C376.283 141.208 380.563 136.915 380.563 131.621C380.563 126.326 376.283 122.034 371.004 122.034C365.725 122.034 361.445 126.326 361.445 131.621C361.445 136.915 365.725 141.208 371.004 141.208Z" fill="#FF8D28"/>
</svg>
