<svg width="276" height="476" viewBox="0 0 276 476" fill="none" xmlns="http://www.w3.org/2000/svg">
<g clip-path="url(#clip0)">
<path d="M222.309 266.126H0.0945435V408.742H222.309V266.126Z" fill="#E6E6E6"/>
<path d="M215.955 284.014H6.44906V400.306H215.955V284.014Z" fill="white"/>
<path d="M222.215 266H0V275.46H222.215V266Z" fill="#FF8D28"/>
<path d="M7.01542 272.59C7.98176 272.59 8.76514 271.805 8.76514 270.837C8.76514 269.868 7.98176 269.083 7.01542 269.083C6.04907 269.083 5.26569 269.868 5.26569 270.837C5.26569 271.805 6.04907 272.59 7.01542 272.59Z" fill="white"/>
<path d="M13.6569 272.59C14.6233 272.59 15.4067 271.805 15.4067 270.837C15.4067 269.868 14.6233 269.083 13.6569 269.083C12.6906 269.083 11.9072 269.868 11.9072 270.837C11.9072 271.805 12.6906 272.59 13.6569 272.59Z" fill="white"/>
<path d="M20.2984 272.59C21.2648 272.59 22.0482 271.805 22.0482 270.837C22.0482 269.868 21.2648 269.083 20.2984 269.083C19.3321 269.083 18.5487 269.868 18.5487 270.837C18.5487 271.805 19.3321 272.59 20.2984 272.59Z" fill="white"/>
<path d="M79.3189 296.08H25.4856V388.239H79.3189V296.08Z" fill="#E6E6E6"/>
<path d="M133.473 296.08H88.6115V321.448H133.473V296.08Z" fill="#FF8D28"/>
<path d="M133.473 328.513H88.6115V355.807H133.473V328.513Z" fill="#E6E6E6"/>
<path d="M133.473 362.872H88.6115V388.24H133.473V362.872Z" fill="#E6E6E6"/>
<path d="M196.919 296.08H143.086V336.243H196.919V296.08Z" fill="#E6E6E6"/>
<path d="M196.919 348.077H143.086V388.239H196.919V348.077Z" fill="#FF8D28"/>
<path d="M254.235 337.481C250.684 331.417 243.658 331.134 243.658 331.134C243.658 331.134 236.813 330.249 232.421 339.486C228.328 348.095 222.678 356.408 231.511 358.423L233.107 353.404L234.095 358.797C235.353 358.888 236.614 358.91 237.874 358.862C247.334 358.554 256.343 358.953 256.053 355.522C255.667 350.96 257.652 343.317 254.235 337.481Z" fill="#2F2E41"/>
<path d="M220.56 369.863L217.454 377.817L201.924 392.343C201.924 392.343 192.605 399.261 196.747 401.336C200.888 403.411 204.685 393.727 204.685 393.727L221.251 383.697L224.702 372.284L220.56 369.863Z" fill="#FFB8B8"/>
<path d="M225.737 458.056L228.843 466.011H233.33L229.534 456.673L225.737 458.056Z" fill="#FFB8B8"/>
<path d="M239.197 461.515L242.303 469.469H246.79L242.994 460.131L239.197 461.515Z" fill="#FFB8B8"/>
<path d="M238.852 462.898L244.719 461.515L237.127 430.734L239.648 407.049L239.715 407.042C239.715 407.042 244.029 390.268 240.578 385.772C237.127 381.276 219.87 383.005 219.87 383.005C219.87 383.005 213.313 389.577 213.658 404.448C214.003 419.32 213.658 432.117 216.074 437.997C218.49 443.876 225.392 459.44 225.392 459.44L230.914 458.748L225.047 433.155L224.109 410.907C224.856 419.822 226.358 436.728 227.118 437.997C228.153 439.726 238.852 462.898 238.852 462.898Z" fill="#2F2E41"/>
<path d="M256.454 377.126L258.87 385.772L269.569 405.14C269.569 405.14 278.887 413.441 275.091 414.478C271.294 415.516 265.427 406.869 265.427 406.869L253.348 389.922L250.241 377.472L256.454 377.126Z" fill="#FFB8B8"/>
<path d="M244.029 352.57C248.794 352.57 252.657 348.699 252.657 343.924C252.657 339.148 248.794 335.277 244.029 335.277C239.264 335.277 235.401 339.148 235.401 343.924C235.401 348.699 239.264 352.57 244.029 352.57Z" fill="#FFB8B8"/>
<path d="M239.542 348.42L237.472 354.991L234.02 362.6L246.79 357.412C246.79 357.412 246.1 351.878 246.79 350.495L239.542 348.42Z" fill="#FFB8B8"/>
<path d="M254.383 362.254L246.445 355.683L237.472 359.487L237.823 353.875L228.249 356.939L226.773 357.412L224.702 368.134C224.702 368.134 223.321 369.171 221.941 375.051C221.144 378.506 219.987 381.867 218.49 385.081C218.49 385.081 233.33 379.201 240.578 387.156C240.578 387.156 241.613 386.464 241.268 385.426C240.923 384.389 244.374 379.201 244.374 379.201C244.374 379.201 244.374 380.239 245.755 378.163C247.135 376.088 248.171 375.742 248.171 375.742L254.383 362.254Z" fill="#FF8D28"/>
<path d="M228.844 358.449L227.336 357.232C227.336 357.232 226.082 356.72 225.047 358.449C224.012 360.179 218.835 370.9 218.835 370.9L225.047 374.013L228.844 358.449Z" fill="#FF8D28"/>
<path d="M249.551 361.908L254.383 362.254C254.383 362.254 257.144 363.637 257.144 365.712C257.144 367.788 257.834 378.855 257.834 378.855L250.241 381.276L247.135 371.592L249.551 361.908Z" fill="#FF8D28"/>
<path d="M227.846 464.801L221.979 467.222C221.979 467.222 215.076 467.567 216.112 471.026C217.147 474.484 227.501 472.064 227.501 472.064C227.501 472.064 236.819 472.409 236.819 469.988C236.819 467.567 235.439 464.801 234.058 464.801H227.846Z" fill="#2F2E41"/>
<path d="M240.961 467.913L235.094 470.334C235.094 470.334 228.191 470.68 229.227 474.139C230.262 477.597 240.616 475.176 240.616 475.176C240.616 475.176 249.934 475.522 249.934 473.101C249.934 470.68 248.554 467.913 247.173 467.913H240.961Z" fill="#2F2E41"/>
<path d="M252.665 336.897L245.724 333.222L236.139 334.725L234.156 343.578L239.093 343.386L240.472 340.134V343.333L242.75 343.244L244.071 338.066L244.898 343.578L252.995 343.411L252.665 336.897Z" fill="#2F2E41"/>
<path d="M206.242 294.895C199.338 289.057 190.889 285.356 181.925 284.242C172.96 283.128 163.865 284.649 155.747 288.62C147.63 292.591 140.839 298.841 136.201 306.61C131.563 314.378 129.279 323.33 129.625 332.376C129.972 341.421 132.934 350.171 138.153 357.561C143.371 364.95 150.62 370.66 159.018 373.996C167.416 377.331 176.6 378.149 185.453 376.35C194.306 374.55 202.447 370.211 208.884 363.86L266.043 412.192C266.474 412.557 266.972 412.833 267.51 413.004C268.047 413.176 268.613 413.24 269.175 413.192C269.737 413.144 270.284 412.986 270.785 412.727C271.286 412.467 271.731 412.111 272.095 411.679C272.458 411.247 272.734 410.748 272.905 410.209C273.076 409.671 273.139 409.104 273.092 408.54C273.044 407.977 272.886 407.429 272.627 406.927C272.368 406.425 272.013 405.979 271.582 405.615L214.422 357.282C221.062 347.732 223.904 336.041 222.391 324.501C220.878 312.96 215.118 302.402 206.242 294.895ZM202.557 352.628C198.104 357.916 192.186 361.763 185.551 363.681C178.917 365.599 171.864 365.502 165.284 363.404C158.705 361.305 152.894 357.298 148.587 351.889C144.279 346.481 141.669 339.914 141.086 333.019C140.504 326.124 141.974 319.211 145.312 313.154C148.65 307.096 153.705 302.167 159.839 298.988C165.972 295.81 172.908 294.526 179.77 295.298C186.632 296.07 193.111 298.864 198.389 303.327C205.465 309.311 209.88 317.867 210.662 327.112C211.444 336.358 208.528 345.536 202.557 352.628Z" fill="#3F3D56"/>
<path opacity="0.3" d="M153.359 356.805C146.662 351.141 142.335 343.16 141.237 334.447C140.14 325.734 142.352 316.926 147.435 309.772C146.768 310.446 146.122 311.151 145.499 311.889C142.542 315.4 140.304 319.461 138.913 323.839C137.522 328.217 137.005 332.827 137.392 337.405C137.779 341.983 139.062 346.44 141.168 350.522C143.274 354.603 146.161 358.229 149.666 361.192C153.17 364.155 157.222 366.397 161.591 367.791C165.96 369.185 170.56 369.702 175.129 369.314C179.697 368.926 184.145 367.64 188.217 365.529C192.29 363.419 195.908 360.525 198.864 357.013C199.486 356.275 200.072 355.519 200.621 354.745C194.439 360.969 186.147 364.637 177.391 365.018C168.636 365.4 160.058 362.468 153.359 356.805Z" fill="black"/>
</g>
<path fill-rule="evenodd" clip-rule="evenodd" d="M130.957 6.27759C131.789 6.27759 132.586 6.608 133.174 7.19614C133.763 7.78427 134.093 8.58196 134.093 9.41371V65.8638C134.093 66.6956 133.763 67.4933 133.174 68.0814C132.586 68.6696 131.789 69 130.957 69C130.125 69 129.327 68.6696 128.739 68.0814C128.151 67.4933 127.821 66.6956 127.821 65.8638V9.41371C127.821 8.58196 128.151 7.78427 128.739 7.19614C129.327 6.608 130.125 6.27759 130.957 6.27759Z" fill="#FF8D28"/>
<path fill-rule="evenodd" clip-rule="evenodd" d="M128.736 0.921353C129.028 0.629297 129.374 0.397583 129.755 0.239482C130.136 0.0813814 130.544 0 130.957 0C131.369 0 131.778 0.0813814 132.159 0.239482C132.54 0.397583 132.886 0.629297 133.177 0.921353L151.994 19.7381C152.583 20.3269 152.914 21.1256 152.914 21.9584C152.914 22.7912 152.583 23.5899 151.994 24.1788C151.405 24.7677 150.606 25.0985 149.774 25.0985C148.941 25.0985 148.142 24.7677 147.553 24.1788L130.957 7.5762L114.36 24.1788C113.772 24.7677 112.973 25.0985 112.14 25.0985C111.307 25.0985 110.509 24.7677 109.92 24.1788C109.331 23.5899 109 22.7912 109 21.9584C109 21.1256 109.331 20.3269 109.92 19.7381L128.736 0.921353Z" fill="#FF8D28"/>
<path d="M39.1504 118.162C39.1504 120.424 38.3301 122.188 36.6895 123.453C35.0488 124.719 32.8223 125.352 30.0098 125.352C26.9629 125.352 24.6191 124.959 22.9785 124.174V121.291C24.0332 121.736 25.1816 122.088 26.4238 122.346C27.666 122.604 28.8965 122.732 30.1152 122.732C32.1074 122.732 33.6074 122.357 34.6152 121.607C35.623 120.846 36.127 119.791 36.127 118.443C36.127 117.553 35.9453 116.826 35.582 116.264C35.2305 115.689 34.6328 115.162 33.7891 114.682C32.957 114.201 31.6855 113.656 29.9746 113.047C27.584 112.191 25.873 111.178 24.8418 110.006C23.8223 108.834 23.3125 107.305 23.3125 105.418C23.3125 103.438 24.0566 101.861 25.5449 100.689C27.0332 99.5176 29.002 98.9316 31.4512 98.9316C34.0059 98.9316 36.3555 99.4004 38.5 100.338L37.5684 102.939C35.4473 102.049 33.3848 101.604 31.3809 101.604C29.7988 101.604 28.5625 101.943 27.6719 102.623C26.7812 103.303 26.3359 104.246 26.3359 105.453C26.3359 106.344 26.5 107.076 26.8281 107.65C27.1562 108.213 27.707 108.734 28.4805 109.215C29.2656 109.684 30.4609 110.205 32.0664 110.779C34.7617 111.74 36.6133 112.771 37.6211 113.873C38.6406 114.975 39.1504 116.404 39.1504 118.162ZM50.1895 122.943C50.7051 122.943 51.2031 122.908 51.6836 122.838C52.1641 122.756 52.5449 122.674 52.8262 122.592V124.824C52.5098 124.977 52.041 125.1 51.4199 125.193C50.8105 125.299 50.2598 125.352 49.7676 125.352C46.041 125.352 44.1777 123.389 44.1777 119.463V108.002H41.418V106.596L44.1777 105.383L45.4082 101.27H47.0957V105.734H52.6855V108.002H47.0957V119.34C47.0957 120.5 47.3711 121.391 47.9219 122.012C48.4727 122.633 49.2285 122.943 50.1895 122.943ZM68.541 125L67.9609 122.258H67.8203C66.8594 123.465 65.8984 124.285 64.9375 124.719C63.9883 125.141 62.7988 125.352 61.3691 125.352C59.459 125.352 57.959 124.859 56.8691 123.875C55.791 122.891 55.252 121.49 55.252 119.674C55.252 115.783 58.3633 113.744 64.5859 113.557L67.8555 113.451V112.256C67.8555 110.744 67.5273 109.631 66.8711 108.916C66.2266 108.189 65.1895 107.826 63.7598 107.826C62.1543 107.826 60.3379 108.318 58.3105 109.303L57.4141 107.07C58.3633 106.555 59.4004 106.15 60.5254 105.857C61.6621 105.564 62.7988 105.418 63.9355 105.418C66.2324 105.418 67.9316 105.928 69.0332 106.947C70.1465 107.967 70.7031 109.602 70.7031 111.852V125H68.541ZM61.9492 122.943C63.7656 122.943 65.1895 122.445 66.2207 121.449C67.2637 120.453 67.7852 119.059 67.7852 117.266V115.525L64.8672 115.648C62.5469 115.73 60.8711 116.094 59.8398 116.738C58.8203 117.371 58.3105 118.361 58.3105 119.709C58.3105 120.764 58.627 121.566 59.2598 122.117C59.9043 122.668 60.8008 122.943 61.9492 122.943ZM85.5215 105.383C86.377 105.383 87.1445 105.453 87.8242 105.594L87.4199 108.301C86.623 108.125 85.9199 108.037 85.3105 108.037C83.752 108.037 82.416 108.67 81.3027 109.936C80.2012 111.201 79.6504 112.777 79.6504 114.664V125H76.7324V105.734H79.1406L79.4746 109.303H79.6152C80.3301 108.049 81.1914 107.082 82.1992 106.402C83.207 105.723 84.3145 105.383 85.5215 105.383ZM97.6504 122.943C98.166 122.943 98.6641 122.908 99.1445 122.838C99.625 122.756 100.006 122.674 100.287 122.592V124.824C99.9707 124.977 99.502 125.1 98.8809 125.193C98.2715 125.299 97.7207 125.352 97.2285 125.352C93.502 125.352 91.6387 123.389 91.6387 119.463V108.002H88.8789V106.596L91.6387 105.383L92.8691 101.27H94.5566V105.734H100.146V108.002H94.5566V119.34C94.5566 120.5 94.832 121.391 95.3828 122.012C95.9336 122.633 96.6895 122.943 97.6504 122.943ZM119.729 122.943C120.244 122.943 120.742 122.908 121.223 122.838C121.703 122.756 122.084 122.674 122.365 122.592V124.824C122.049 124.977 121.58 125.1 120.959 125.193C120.35 125.299 119.799 125.352 119.307 125.352C115.58 125.352 113.717 123.389 113.717 119.463V108.002H110.957V106.596L113.717 105.383L114.947 101.27H116.635V105.734H122.225V108.002H116.635V119.34C116.635 120.5 116.91 121.391 117.461 122.012C118.012 122.633 118.768 122.943 119.729 122.943ZM135.021 105.383C135.877 105.383 136.645 105.453 137.324 105.594L136.92 108.301C136.123 108.125 135.42 108.037 134.811 108.037C133.252 108.037 131.916 108.67 130.803 109.936C129.701 111.201 129.15 112.777 129.15 114.664V125H126.232V105.734H128.641L128.975 109.303H129.115C129.83 108.049 130.691 107.082 131.699 106.402C132.707 105.723 133.814 105.383 135.021 105.383ZM152.775 125L152.195 122.258H152.055C151.094 123.465 150.133 124.285 149.172 124.719C148.223 125.141 147.033 125.352 145.604 125.352C143.693 125.352 142.193 124.859 141.104 123.875C140.025 122.891 139.486 121.49 139.486 119.674C139.486 115.783 142.598 113.744 148.82 113.557L152.09 113.451V112.256C152.09 110.744 151.762 109.631 151.105 108.916C150.461 108.189 149.424 107.826 147.994 107.826C146.389 107.826 144.572 108.318 142.545 109.303L141.648 107.07C142.598 106.555 143.635 106.15 144.76 105.857C145.896 105.564 147.033 105.418 148.17 105.418C150.467 105.418 152.166 105.928 153.268 106.947C154.381 107.967 154.938 109.602 154.938 111.852V125H152.775ZM146.184 122.943C148 122.943 149.424 122.445 150.455 121.449C151.498 120.453 152.02 119.059 152.02 117.266V115.525L149.102 115.648C146.781 115.73 145.105 116.094 144.074 116.738C143.055 117.371 142.545 118.361 142.545 119.709C142.545 120.764 142.861 121.566 143.494 122.117C144.139 122.668 145.035 122.943 146.184 122.943ZM168.666 125.352C165.877 125.352 163.715 124.496 162.18 122.785C160.656 121.062 159.895 118.631 159.895 115.49C159.895 112.268 160.668 109.777 162.215 108.02C163.773 106.262 165.988 105.383 168.859 105.383C169.785 105.383 170.711 105.482 171.637 105.682C172.562 105.881 173.289 106.115 173.816 106.385L172.92 108.863C172.275 108.605 171.572 108.395 170.811 108.23C170.049 108.055 169.375 107.967 168.789 107.967C164.875 107.967 162.918 110.463 162.918 115.455C162.918 117.822 163.393 119.639 164.342 120.904C165.303 122.17 166.721 122.803 168.596 122.803C170.201 122.803 171.848 122.457 173.535 121.766V124.35C172.246 125.018 170.623 125.352 168.666 125.352ZM181.006 115.139C181.51 114.424 182.277 113.486 183.309 112.326L189.531 105.734H192.994L185.189 113.943L193.539 125H190.006L183.203 115.895L181.006 117.793V125H178.123V97.6484H181.006V112.15C181.006 112.795 180.959 113.791 180.865 115.139H181.006ZM199.955 125H197.037V105.734H199.955V125ZM196.791 100.514C196.791 99.8457 196.955 99.3594 197.283 99.0547C197.611 98.7383 198.021 98.5801 198.514 98.5801C198.982 98.5801 199.387 98.7383 199.727 99.0547C200.066 99.3711 200.236 99.8574 200.236 100.514C200.236 101.17 200.066 101.662 199.727 101.99C199.387 102.307 198.982 102.465 198.514 102.465C198.021 102.465 197.611 102.307 197.283 101.99C196.955 101.662 196.791 101.17 196.791 100.514ZM219.326 125V112.537C219.326 110.967 218.969 109.795 218.254 109.021C217.539 108.248 216.42 107.861 214.896 107.861C212.881 107.861 211.404 108.406 210.467 109.496C209.529 110.586 209.061 112.385 209.061 114.893V125H206.143V105.734H208.516L208.99 108.371H209.131C209.729 107.422 210.566 106.689 211.645 106.174C212.723 105.646 213.924 105.383 215.248 105.383C217.568 105.383 219.314 105.945 220.486 107.07C221.658 108.184 222.244 109.971 222.244 112.432V125H219.326ZM244.023 105.734V107.58L240.455 108.002C240.783 108.412 241.076 108.951 241.334 109.619C241.592 110.275 241.721 111.02 241.721 111.852C241.721 113.738 241.076 115.244 239.787 116.369C238.498 117.494 236.729 118.057 234.479 118.057C233.904 118.057 233.365 118.01 232.861 117.916C231.619 118.572 230.998 119.398 230.998 120.395C230.998 120.922 231.215 121.314 231.648 121.572C232.082 121.818 232.826 121.941 233.881 121.941H237.291C239.377 121.941 240.977 122.381 242.09 123.26C243.215 124.139 243.777 125.416 243.777 127.092C243.777 129.225 242.922 130.848 241.211 131.961C239.5 133.086 237.004 133.648 233.723 133.648C231.203 133.648 229.258 133.18 227.887 132.242C226.527 131.305 225.848 129.98 225.848 128.27C225.848 127.098 226.223 126.084 226.973 125.229C227.723 124.373 228.777 123.793 230.137 123.488C229.645 123.266 229.229 122.92 228.889 122.451C228.561 121.982 228.396 121.438 228.396 120.816C228.396 120.113 228.584 119.498 228.959 118.971C229.334 118.443 229.926 117.934 230.734 117.441C229.738 117.031 228.924 116.334 228.291 115.35C227.67 114.365 227.359 113.24 227.359 111.975C227.359 109.865 227.992 108.242 229.258 107.105C230.523 105.957 232.316 105.383 234.637 105.383C235.645 105.383 236.553 105.5 237.361 105.734H244.023ZM228.66 128.234C228.66 129.277 229.1 130.068 229.979 130.607C230.857 131.146 232.117 131.416 233.758 131.416C236.207 131.416 238.018 131.047 239.189 130.309C240.373 129.582 240.965 128.592 240.965 127.338C240.965 126.295 240.643 125.568 239.998 125.158C239.354 124.76 238.141 124.561 236.359 124.561H232.861C231.537 124.561 230.506 124.877 229.768 125.51C229.029 126.143 228.66 127.051 228.66 128.234ZM230.242 111.904C230.242 113.252 230.623 114.271 231.385 114.963C232.146 115.654 233.207 116 234.566 116C237.414 116 238.838 114.617 238.838 111.852C238.838 108.957 237.396 107.51 234.514 107.51C233.143 107.51 232.088 107.879 231.35 108.617C230.611 109.355 230.242 110.451 230.242 111.904ZM84.4141 174L83.834 171.258H83.6934C82.7324 172.465 81.7715 173.285 80.8105 173.719C79.8613 174.141 78.6719 174.352 77.2422 174.352C75.332 174.352 73.832 173.859 72.7422 172.875C71.6641 171.891 71.125 170.49 71.125 168.674C71.125 164.783 74.2363 162.744 80.459 162.557L83.7285 162.451V161.256C83.7285 159.744 83.4004 158.631 82.7441 157.916C82.0996 157.189 81.0625 156.826 79.6328 156.826C78.0273 156.826 76.2109 157.318 74.1836 158.303L73.2871 156.07C74.2363 155.555 75.2734 155.15 76.3984 154.857C77.5352 154.564 78.6719 154.418 79.8086 154.418C82.1055 154.418 83.8047 154.928 84.9062 155.947C86.0195 156.967 86.5762 158.602 86.5762 160.852V174H84.4141ZM77.8223 171.943C79.6387 171.943 81.0625 171.445 82.0938 170.449C83.1367 169.453 83.6582 168.059 83.6582 166.266V164.525L80.7402 164.648C78.4199 164.73 76.7441 165.094 75.7129 165.738C74.6934 166.371 74.1836 167.361 74.1836 168.709C74.1836 169.764 74.5 170.566 75.1328 171.117C75.7773 171.668 76.6738 171.943 77.8223 171.943ZM105.789 174V161.537C105.789 159.967 105.432 158.795 104.717 158.021C104.002 157.248 102.883 156.861 101.359 156.861C99.3438 156.861 97.8672 157.406 96.9297 158.496C95.9922 159.586 95.5234 161.385 95.5234 163.893V174H92.6055V154.734H94.9785L95.4531 157.371H95.5938C96.1914 156.422 97.0293 155.689 98.1074 155.174C99.1855 154.646 100.387 154.383 101.711 154.383C104.031 154.383 105.777 154.945 106.949 156.07C108.121 157.184 108.707 158.971 108.707 161.432V174H105.789ZM126.988 174H124.07V154.734H126.988V174ZM123.824 149.514C123.824 148.846 123.988 148.359 124.316 148.055C124.645 147.738 125.055 147.58 125.547 147.58C126.016 147.58 126.42 147.738 126.76 148.055C127.1 148.371 127.27 148.857 127.27 149.514C127.27 150.17 127.1 150.662 126.76 150.99C126.42 151.307 126.016 151.465 125.547 151.465C125.055 151.465 124.645 151.307 124.316 150.99C123.988 150.662 123.824 150.17 123.824 149.514ZM139.398 171.943C139.914 171.943 140.412 171.908 140.893 171.838C141.373 171.756 141.754 171.674 142.035 171.592V173.824C141.719 173.977 141.25 174.1 140.629 174.193C140.02 174.299 139.469 174.352 138.977 174.352C135.25 174.352 133.387 172.389 133.387 168.463V157.002H130.627V155.596L133.387 154.383L134.617 150.27H136.305V154.734H141.895V157.002H136.305V168.34C136.305 169.5 136.58 170.391 137.131 171.012C137.682 171.633 138.438 171.943 139.398 171.943ZM154.041 174.352C151.193 174.352 148.943 173.484 147.291 171.75C145.65 170.016 144.83 167.607 144.83 164.525C144.83 161.42 145.592 158.953 147.115 157.125C148.65 155.297 150.707 154.383 153.285 154.383C155.699 154.383 157.609 155.18 159.016 156.773C160.422 158.355 161.125 160.447 161.125 163.049V164.895H147.854C147.912 167.156 148.48 168.873 149.559 170.045C150.648 171.217 152.178 171.803 154.146 171.803C156.221 171.803 158.271 171.369 160.299 170.502V173.104C159.268 173.549 158.289 173.865 157.363 174.053C156.449 174.252 155.342 174.352 154.041 174.352ZM153.25 156.826C151.703 156.826 150.467 157.33 149.541 158.338C148.627 159.346 148.088 160.74 147.924 162.521H157.996C157.996 160.682 157.586 159.275 156.766 158.303C155.945 157.318 154.773 156.826 153.25 156.826ZM190.674 174V161.467C190.674 159.932 190.346 158.783 189.689 158.021C189.033 157.248 188.014 156.861 186.631 156.861C184.814 156.861 183.473 157.383 182.605 158.426C181.738 159.469 181.305 161.074 181.305 163.242V174H178.387V161.467C178.387 159.932 178.059 158.783 177.402 158.021C176.746 157.248 175.721 156.861 174.326 156.861C172.498 156.861 171.156 157.412 170.301 158.514C169.457 159.604 169.035 161.396 169.035 163.893V174H166.117V154.734H168.49L168.965 157.371H169.105C169.656 156.434 170.43 155.701 171.426 155.174C172.434 154.646 173.559 154.383 174.801 154.383C177.812 154.383 179.781 155.473 180.707 157.652H180.848C181.422 156.645 182.254 155.848 183.344 155.262C184.434 154.676 185.676 154.383 187.07 154.383C189.25 154.383 190.879 154.945 191.957 156.07C193.047 157.184 193.592 158.971 193.592 161.432V174H190.674Z" />
<defs>
<clipPath id="clip0">
<rect width="276" height="210" fill="white" transform="translate(0 266)"/>
</clipPath>
</defs>
</svg>
