<svg id="SvgjsSvg1026" width="288" height="288" xmlns="http://www.w3.org/2000/svg" version="1.1" xmlns:xlink="http://www.w3.org/1999/xlink" xmlns:svgjs="http://svgjs.com/svgjs"><defs id="SvgjsDefs1027"></defs><g id="SvgjsG1028" transform="matrix(0.9167,0,0,0.9167,11.995108483886725,11.994902572631844)"><svg xmlns="http://www.w3.org/2000/svg" width="288" height="288" viewBox="0 0 32 32"><g transform="translate(2729.541 -968.067)" fill="#000000" class="color000 svgShape"><path style="line-height:normal;font-variant-ligatures:normal;font-variant-position:normal;font-variant-caps:normal;font-variant-numeric:normal;font-variant-alternates:normal;font-feature-settings:normal;text-indent:0;text-align:start;text-decoration-line:none;text-decoration-style:solid;text-decoration-color:#000;text-transform:none;text-orientation:mixed;shape-padding:0;isolation:auto;mix-blend-mode:normal" fill="#586597" d="m -2713.5412,977.56663 c -3.1667,0 -6.2347,1.55559 -8.5273,3.084 -2.2927,1.5284 -3.8262,3.0625 -3.8262,3.0625 a 0.50004994,0.50004994 0 0 0 0,0.707 c 0,0 1.5335,1.5341 3.8262,3.0625 2.2926,1.5285 5.3606,3.084 8.5273,3.084 3.1667,0 6.2347,-1.5555 8.5273,-3.084 2.2927,-1.5284 3.8262,-3.0625 3.8262,-3.0625 a 0.50004994,0.50004994 0 0 0 0,-0.707 c 0,0 -1.5335,-1.5341 -3.8262,-3.0625 -2.2926,-1.5284 -5.3606,-3.084 -8.5273,-3.084 z" color="#000" font-family="sans-serif" font-weight="400" overflow="visible" class="color586597 svgShape"></path><path style="line-height:normal;font-variant-ligatures:normal;font-variant-position:normal;font-variant-caps:normal;font-variant-numeric:normal;font-variant-alternates:normal;font-feature-settings:normal;text-indent:0;text-align:start;text-decoration-line:none;text-decoration-style:solid;text-decoration-color:#000;text-transform:none;text-orientation:mixed;shape-padding:0;isolation:auto;mix-blend-mode:normal" fill="#ffffff" d="m -2713.5412,978.56663 c 2.8333,0 5.7653,1.4445 7.9727,2.91599 1.9419,1.2947 2.9314,2.2925 3.2324,2.58401 -0.301,0.2916 -1.2905,1.28939 -3.2324,2.584 -2.2074,1.4716 -5.1394,2.916 -7.9727,2.916 -2.8333,0 -5.7653,-1.44441 -7.9727,-2.916 -1.9419,-1.2946 -2.9314,-2.2924 -3.2324,-2.584 0.301,-0.29151 1.2905,-1.2893 3.2324,-2.58401 2.2074,-1.4715 5.1394,-2.91599 7.9727,-2.91599 z" color="#000" font-family="sans-serif" font-weight="400" overflow="visible" class="colorfff svgShape"></path><path style="line-height:normal;font-variant-ligatures:normal;font-variant-position:normal;font-variant-caps:normal;font-variant-numeric:normal;font-variant-alternates:normal;font-feature-settings:normal;text-indent:0;text-align:start;text-decoration-line:none;text-decoration-style:solid;text-decoration-color:#000;text-transform:none;text-orientation:mixed;shape-padding:0;isolation:auto;mix-blend-mode:normal" fill="#586597" d="m -2713.5412,979.56663 c -2.4794,0 -4.5,2.0207 -4.5,4.5 0,2.47939 2.0206,4.5 4.5,4.5 2.4794,0 4.5,-2.02061 4.5,-4.5 0,-2.4793 -2.0206,-4.5 -4.5,-4.5 z" color="#000" font-family="sans-serif" font-weight="400" overflow="visible" class="color586597 svgShape"></path><path style="line-height:normal;font-variant-ligatures:normal;font-variant-position:normal;font-variant-caps:normal;font-variant-numeric:normal;font-variant-alternates:normal;font-feature-settings:normal;text-indent:0;text-align:start;text-decoration-line:none;text-decoration-style:solid;text-decoration-color:#000;text-transform:none;text-orientation:mixed;shape-padding:0;isolation:auto;mix-blend-mode:normal" fill="#ffbf66" d="m -2713.5412,980.56663 c 1.9389,0 3.5,1.56109 3.5,3.5 0,1.9389 -1.5611,3.5 -3.5,3.5 -1.9389,0 -3.5,-1.5611 -3.5,-3.5 0,-1.93891 1.5611,-3.5 3.5,-3.5 z" color="#000" font-family="sans-serif" font-weight="400" overflow="visible" class="colorbcf3d3 svgShape"></path><path style="line-height:normal;font-variant-ligatures:normal;font-variant-position:normal;font-variant-caps:normal;font-variant-numeric:normal;font-variant-alternates:normal;font-feature-settings:normal;text-indent:0;text-align:start;text-decoration-line:none;text-decoration-style:solid;text-decoration-color:#000;text-transform:none;text-orientation:mixed;shape-padding:0;isolation:auto;mix-blend-mode:normal" fill="#eef396" d="m -2713.5412,982.44163 c 0.9002,0 1.625,0.72479 1.625,1.625 0,0.9002 -0.7248,1.625 -1.625,1.625 -0.9002,0 -1.625,-0.7248 -1.625,-1.625 0,-0.90021 0.7248,-1.625 1.625,-1.625 z" color="#000" font-family="sans-serif" font-weight="400" overflow="visible" class="coloreef396 svgShape"></path><path style="line-height:normal;font-variant-ligatures:normal;font-variant-position:normal;font-variant-caps:normal;font-variant-numeric:normal;font-variant-alternates:normal;font-feature-settings:normal;text-indent:0;text-align:start;text-decoration-line:none;text-decoration-style:solid;text-decoration-color:#000;text-transform:none;text-orientation:mixed;shape-padding:0;isolation:auto;mix-blend-mode:normal" fill="#586597" d="m -2712.9787,982.14873 c -0.7981,-0.2336 -1.6628,0.054 -2.1621,0.7187 -0.4994,0.66499 -0.5348,1.5741 -0.088,2.2754 0.4469,0.70129 1.2859,1.05259 2.0996,0.8809 0.8137,-0.1718 1.4391,-0.8322 1.5645,-1.6543 a 0.50005,0.50005 0 1 0 -0.9883,-0.1504 c -0.063,0.4135 -0.372,0.7398 -0.7813,0.8261 -0.4092,0.086 -0.826,-0.087 -1.0507,-0.4394 -0.2248,-0.3528 -0.2063,-0.8042 0.045,-1.1387 0.2511,-0.3344 0.6786,-0.4768 1.08,-0.3594 a 0.50005,0.50005 0 1 0 0.2813,-0.9589 z" color="#000" font-family="sans-serif" font-weight="400" overflow="visible" class="color586597 svgShape"></path></g></svg></g></svg>