<?xml version="1.0" encoding="UTF-8"?><svg xmlns="http://www.w3.org/2000/svg" xmlns:xlink="http://www.w3.org/1999/xlink" version="1.1" id="Layer_1" x="0px" y="0px" viewBox="0 0 24 24" xml:space="preserve"><path fill="#303C42" d="M23.854 10.146l-5-5A.5.5 0 0 0 18.5 5H14V3.5a.5.5 0 0 0-.5-.5H2C.897 3 0 3.897 0 5v12.5c0 .827.673 1.5 1.5 1.5h1.184c.414 1.161 1.514 2 2.816 2s2.402-.839 2.816-2h7.368c.414 1.161 1.514 2 2.816 2s2.402-.839 2.816-2H22c1.103 0 2-.897 2-2v-6.5a.5.5 0 0 0-.146-.354z"/><path fill="#1E88E5" d="M23 17c0 .551-.448 1-1 1h-.5c0-1.654-1.346-3-3-3s-3 1.346-3 3h-7c0-1.654-1.346-3-3-3s-3 1.346-3 3h-1a.5.5 0 0 1-.5-.5V5c0-.551.448-1 1-1h11v1.5a.5.5 0 0 0 .5.5h4.793L23 10.707V17z"/><path opacity="0.1" d="M1 17.013v.487a.5.5 0 0 0 .5.5h1c0-.347.071-.676.18-.987H1z"/><path opacity="0.1" d="M8.32 17.013c.109.31.18.64.18.987h7c0-.347.071-.676.18-.987H8.32z"/><path opacity="0.1" d="M18.293 6h-.013L22 9.72v6.293a.99.99 0 0 1-.699.94c.123.327.199.677.199 1.047h.5c.552 0 1-.449 1-1v-6.293L18.293 6z"/><path fill="#303C42" d="M5.5 8h-2a.5.5 0 0 0-.5.5v4a.5.5 0 1 0 1 0V11h1a.5.5 0 1 0 0-1H4V9h1.5a.5.5 0 1 0 0-1z"/><path fill="#303C42" d="M13.5 9a.5.5 0 1 0 0-1h-2a.5.5 0 0 0-.5.5v4a.5.5 0 0 0 .5.5h2a.5.5 0 1 0 0-1H12v-1h1a.5.5 0 1 0 0-1h-1V9h1.5z"/><path fill="#303C42" d="M17.5 9a.5.5 0 1 0 0-1h-2a.5.5 0 0 0-.5.5v4a.5.5 0 0 0 .5.5h2a.5.5 0 1 0 0-1H16v-1h1a.5.5 0 1 0 0-1h-1V9h1.5z"/><path fill="#303C42" d="M8.5 8h-1a.5.5 0 0 0-.5.5v4a.5.5 0 1 0 1 0V11h.5a.5.5 0 0 1 .5.5v1a.5.5 0 1 0 1 0v-1c0-.384-.145-.734-.383-1A1.502 1.502 0 0 0 8.5 8zm0 2H8V9h.5a.5.5 0 0 1 0 1z"/><circle fill="#546E7A" cx="5.5" cy="18" r="2"/><circle fill="#303C42" cx="5.5" cy="18" r="0.5"/><circle fill="#546E7A" cx="18.5" cy="18" r="2"/><circle fill="#303C42" cx="18.5" cy="18" r="0.5"/><linearGradient id="SVGID_1_" gradientUnits="userSpaceOnUse" x1="7.3706512" y1="16.2563629" x2="9.4214325" y2="18.3071442"><stop offset="0" stop-color="#000" stop-opacity="0.1"/><stop offset="1" stop-color="#000" stop-opacity="0"/></linearGradient><path fill="url(#SVGID_1_)" d="M9.729 18l-2.051-2.05c.506.537.822 1.255.822 2.05h1.229z"/><linearGradient id="SVGID_2_" gradientUnits="userSpaceOnUse" x1="20.4378662" y1="16.3303223" x2="22.2328491" y2="18.1253052"><stop offset="0" stop-color="#000" stop-opacity="0.1"/><stop offset="1" stop-color="#000" stop-opacity="0"/></linearGradient><path fill="url(#SVGID_2_)" d="M22.537 17.822l-1.795-1.795c.466.528.758 1.214.758 1.973h.5c.202 0 .38-.075.537-.178z"/><linearGradient id="SVGID_3_" gradientUnits="userSpaceOnUse" x1="-1.139567" y1="7.0006657" x2="23.5096188" y2="18.4947701"><stop offset="0" stop-color="#FFF" stop-opacity="0.2"/><stop offset="1" stop-color="#FFF" stop-opacity="0"/></linearGradient><path fill="url(#SVGID_3_)" d="M23.854 10.146l-5-5A.5.5 0 0 0 18.5 5H14V3.5a.5.5 0 0 0-.5-.5H2C.897 3 0 3.897 0 5v12.5c0 .827.673 1.5 1.5 1.5h1.184c.414 1.161 1.514 2 2.816 2s2.402-.839 2.816-2h7.368c.414 1.161 1.514 2 2.816 2s2.402-.839 2.816-2H22c1.103 0 2-.897 2-2v-6.5a.5.5 0 0 0-.146-.354z"/><metadata><rdf:RDF xmlns:rdf="http://www.w3.org/1999/02/22-rdf-syntax-ns#" xmlns:rdfs="http://www.w3.org/2000/01/rdf-schema#" xmlns:dc="http://purl.org/dc/elements/1.1/"><rdf:Description about="https://iconscout.com/legal#licenses" dc:title="shipping,delivery,free,truck" dc:description="shipping,delivery,free,truck" dc:publisher="Iconscout" dc:date="2017-08-16" dc:format="image/svg+xml" dc:language="en"><dc:creator><rdf:Bag><rdf:li>Those Icons</rdf:li></rdf:Bag></dc:creator></rdf:Description></rdf:RDF></metadata></svg>