<svg width="69" height="41" viewBox="0 0 69 41" fill="none" xmlns="http://www.w3.org/2000/svg">
<path fill-rule="evenodd" clip-rule="evenodd" d="M65.4751 33.6797L41.2286 3.37299L24.2744 20.3272L3.94724 0L0 3.94166L24.2744 28.2161L40.7714 11.7191L61.1209 37.1642L65.4751 33.6797Z" fill="black"/>
<path fill-rule="evenodd" clip-rule="evenodd" d="M41.0002 38.2124C41.0002 38.9517 41.2939 39.6608 41.8167 40.1835C42.3395 40.7063 43.0485 41 43.7878 41H66.0886C66.8279 41 67.537 40.7063 68.0597 40.1835C68.5825 39.6608 68.8762 38.9517 68.8762 38.2124V15.9116C68.8762 15.1723 68.5825 14.4633 68.0597 13.9405C67.537 13.4177 66.8279 13.124 66.0886 13.124C65.3493 13.124 64.6403 13.4177 64.1175 13.9405C63.5947 14.4633 63.301 15.1723 63.301 15.9116V35.4248H43.7878C43.0485 35.4248 42.3395 35.7185 41.8167 36.2413C41.2939 36.764 41.0002 37.4731 41.0002 38.2124Z" fill="black"/>
</svg>
