
<svg width="30" height="31" viewBox="0 0 30 31" fill="none" xmlns="http://www.w3.org/2000/svg">
<path fill-rule="evenodd" clip-rule="evenodd" d="M30 20.1019C27.1913 21.1916 24.1263 21.4411 21.1783 20.82C18.2304 20.1989 15.5266 18.734 13.3963 16.6037C11.266 14.4734 9.8011 11.7696 9.18 8.82166C8.55891 5.87368 8.80841 2.80871 9.89813 0C6.52438 1.31478 3.71561 3.76631 1.95675 6.93131C0.19789 10.0963 -0.400646 13.7761 0.264481 17.3354C0.929608 20.8947 2.81665 24.11 5.59979 26.4262C8.38294 28.7424 11.8875 30.0142 15.5084 30.0219C18.6425 30.0227 21.7037 29.0757 24.2899 27.3054C26.8762 25.535 28.8667 23.0239 30 20.1019Z" fill="#E2C24D" fill-opacity="0.89"/>
</svg>
