<?xml version="1.0" encoding="UTF-8"?><svg xmlns="http://www.w3.org/2000/svg" xmlns:xlink="http://www.w3.org/1999/xlink" version="1.1" id="Layer_1" x="0px" y="0px" viewBox="0 0 24 24" xml:space="preserve"><path fill="#303C42" d="M22 7h-5.293l-3.756-3.756c.02-.08.049-.158.049-.244a1 1 0 0 0-2 0c0 .086.029.164.05.244L7.292 7H2C.897 7 0 7.897 0 9v11c0 1.103.897 2 2 2h20c1.103 0 2-.897 2-2V9c0-1.103-.897-2-2-2zM8.707 7l3.05-3.05c.08.021.157.05.243.05s.164-.029.244-.05L15.293 7H8.707z"/><path fill="#29B6F6" d="M23 20c0 .551-.448 1-1 1H2c-.552 0-1-.449-1-1V9c0-.551.448-1 1-1h20c.552 0 1 .449 1 1v11z"/><path fill="#303C42" d="M6 13h1a.5.5 0 1 0 0-1H6c-.827 0-1.5.673-1.5 1.5S5.173 15 6 15a.5.5 0 0 1 0 1H5a.5.5 0 1 0 0 1h1c.827 0 1.5-.673 1.5-1.5S6.827 14 6 14a.5.5 0 0 1 0-1z"/><path fill="#303C42" d="M10 12c-.827 0-1.5.673-1.5 1.5v2c0 .827.673 1.5 1.5 1.5s1.5-.673 1.5-1.5v-2c0-.827-.673-1.5-1.5-1.5zm.5 3.5a.5.5 0 0 1-1 0v-2a.5.5 0 0 1 1 0v2z"/><path fill="#303C42" d="M15 16h-1.5v-3.5a.5.5 0 1 0-1 0v4a.5.5 0 0 0 .5.5h2a.5.5 0 1 0 0-1z"/><path fill="#303C42" d="M18 12h-1a.5.5 0 0 0-.5.5v4a.5.5 0 0 0 .5.5h1c.827 0 1.5-.673 1.5-1.5v-2c0-.827-.673-1.5-1.5-1.5zm.5 3.5a.5.5 0 0 1-.5.5h-.5v-3h.5a.5.5 0 0 1 .5.5v2z"/><linearGradient id="SVGID_1_" gradientUnits="userSpaceOnUse" x1="-0.0883311" y1="8.7462826" x2="24.1778316" y2="20.0617809"><stop offset="0" stop-color="#FFF" stop-opacity="0.2"/><stop offset="1" stop-color="#FFF" stop-opacity="0"/></linearGradient><path fill="url(#SVGID_1_)" d="M22 7h-5.293l-3.756-3.756c.02-.08.049-.158.049-.244a1 1 0 0 0-2 0c0 .086.029.164.05.244L7.292 7H2C.897 7 0 7.897 0 9v11c0 1.103.897 2 2 2h20c1.103 0 2-.897 2-2V9c0-1.103-.897-2-2-2zM8.707 7l3.05-3.05c.08.021.157.05.243.05s.164-.029.244-.05L15.293 7H8.707z"/><metadata><rdf:RDF xmlns:rdf="http://www.w3.org/1999/02/22-rdf-syntax-ns#" xmlns:rdfs="http://www.w3.org/2000/01/rdf-schema#" xmlns:dc="http://purl.org/dc/elements/1.1/"><rdf:Description about="https://iconscout.com/legal#licenses" dc:title="real,setate,house,home,sold,sign,hanger" dc:description="real,setate,house,home,sold,sign,hanger" dc:publisher="Iconscout" dc:date="2017-08-16" dc:format="image/svg+xml" dc:language="en"><dc:creator><rdf:Bag><rdf:li>Those Icons</rdf:li></rdf:Bag></dc:creator></rdf:Description></rdf:RDF></metadata></svg>