<svg id="SvgjsSvg1016" width="288" height="288" xmlns="http://www.w3.org/2000/svg" version="1.1" xmlns:xlink="http://www.w3.org/1999/xlink" xmlns:svgjs="http://svgjs.com/svgjs"><defs id="SvgjsDefs1017"></defs><g id="SvgjsG1018" transform="matrix(0.9167,0,0,0.9167,11.995096549107132,11.995200000000011)"><svg xmlns="http://www.w3.org/2000/svg" enable-background="new 0 0 24 24" viewBox="0 0 24 24" width="288" height="288"><path fill="#ffbf66" d="M23.95,9.192c-0.125-0.387-0.481-0.665-0.889-0.69L15.675,8.04l-2.757-6.432   C12.762,1.239,12.401,1,12,1s-0.763,0.239-0.919,0.606L8.324,8.04L0.938,8.502C0.531,8.527,0.174,8.805,0.051,9.188   c-0.13,0.392-0.009,0.815,0.309,1.081l5.543,4.619L4.52,21.804c-0.078,0.392,0.083,0.792,0.406,1.015   c0.32,0.225,0.769,0.237,1.098,0.033L12,19.174l5.974,3.677C18.131,22.948,18.313,23,18.499,23c0.206,0,0.404-0.063,0.569-0.178   c0.328-0.227,0.489-0.626,0.411-1.018l-1.383-6.916l5.543-4.62C23.957,10.003,24.078,9.579,23.95,9.192z" class="color303c42 svgShape"></path><path fill="#ffbf66" d="M17.228,14.31c-0.141,0.118-0.206,0.303-0.17,0.482l1.439,7.206l-6.236-3.837   c-0.16-0.099-0.363-0.099-0.523,0L5.5,22l1.441-7.208c0.036-0.18-0.029-0.365-0.17-0.482L1.001,9.5l7.693-0.481   c0.188-0.012,0.353-0.128,0.429-0.302L11.999,2l2.879,6.717c0.075,0.174,0.24,0.291,0.429,0.302L22.999,9.5L17.228,14.31z" class="colore6e6e6 svgShape"></path><linearGradient id="a" x1=".521" x2="21.495" y1="8.162" y2="17.942" gradientUnits="userSpaceOnUse"><stop offset="0" stop-color="#ffffff" stop-opacity=".2" class="stopColorfff svgShape"></stop><stop offset="1" stop-color="#ffffff" stop-opacity="0" class="stopColorfff svgShape"></stop></linearGradient><path fill="url(#a)" d="M23.95,9.192c-0.125-0.387-0.481-0.665-0.889-0.69L15.675,8.04l-2.757-6.432   C12.762,1.239,12.401,1,12,1s-0.763,0.239-0.919,0.606L8.324,8.04L0.938,8.502C0.531,8.527,0.174,8.805,0.051,9.188   c-0.13,0.392-0.009,0.815,0.309,1.081l5.543,4.619L4.52,21.804c-0.078,0.392,0.083,0.792,0.406,1.015   c0.32,0.225,0.769,0.237,1.098,0.033L12,19.174l5.974,3.677C18.131,22.948,18.313,23,18.499,23c0.206,0,0.404-0.063,0.569-0.178   c0.328-0.227,0.489-0.626,0.411-1.018l-1.383-6.916l5.543-4.62C23.957,10.003,24.078,9.579,23.95,9.192z"></path></svg></g></svg>