<svg width="38" height="40" viewBox="0 0 38 40" fill="none" xmlns="http://www.w3.org/2000/svg">
<path d="M19 7.13333C19.28 7.13333 19.5485 7.01627 19.7464 6.80789C19.9444 6.59952 20.0556 6.31691 20.0556 6.02222V2.12222C20.0556 1.82753 19.9444 1.54492 19.7464 1.33655C19.5485 1.12817 19.28 1.01111 19 1.01111C18.7201 1.01111 18.4516 1.12817 18.2536 1.33655C18.0557 1.54492 17.9445 1.82753 17.9445 2.12222V6.02222C17.9445 6.31691 18.0557 6.59952 18.2536 6.80789C18.4516 7.01627 18.7201 7.13333 19 7.13333Z" fill="#FFBC1C"/>
<path d="M19 32.8667C18.7201 32.8667 18.4516 32.9837 18.2536 33.1921C18.0557 33.4005 17.9445 33.6831 17.9445 33.9778V37.8778C17.9445 38.1725 18.0557 38.4551 18.2536 38.6635C18.4516 38.8718 18.7201 38.9889 19 38.9889C19.28 38.9889 19.5485 38.8718 19.7464 38.6635C19.9444 38.4551 20.0556 38.1725 20.0556 37.8778V33.9778C20.0556 33.6831 19.9444 33.4005 19.7464 33.1921C19.5485 32.9837 19.28 32.8667 19 32.8667Z" fill="#FFBC1C"/>
<path d="M8.86665 10.9C9.06858 11.082 9.32832 11.1772 9.59398 11.1663C9.85964 11.1555 10.1116 11.0396 10.2996 10.8417C10.4876 10.6439 10.5977 10.3786 10.608 10.099C10.6183 9.81931 10.5279 9.54589 10.355 9.33334L7.7372 6.57778C7.53528 6.39575 7.27553 6.30064 7.00987 6.31144C6.74421 6.32224 6.49221 6.43816 6.30422 6.63605C6.11623 6.83393 6.0061 7.09919 5.99584 7.37883C5.98558 7.65847 6.07594 7.93189 6.24887 8.14445L8.86665 10.9Z" fill="#FFBC1C"/>
<path d="M29.1333 29.1C28.9314 28.918 28.6716 28.8229 28.406 28.8337C28.1403 28.8445 27.8883 28.9604 27.7003 29.1583C27.5124 29.3561 27.4022 29.6214 27.392 29.9011C27.3817 30.1807 27.4721 30.4541 27.645 30.6667L30.2628 33.4222C30.4647 33.6043 30.7244 33.6994 30.9901 33.6886C31.2558 33.6778 31.5078 33.5618 31.6958 33.364C31.8837 33.1661 31.9939 32.9008 32.0041 32.6212C32.0144 32.3415 31.924 32.0681 31.7511 31.8556L29.1333 29.1Z" fill="#FFBC1C"/>
<path d="M6.77668 20C6.77668 19.7053 6.66547 19.4227 6.46752 19.2143C6.26956 19.0059 6.00108 18.8889 5.72113 18.8889H2.01613C1.73618 18.8889 1.46769 19.0059 1.26974 19.2143C1.07178 19.4227 0.960571 19.7053 0.960571 20C0.960571 20.2947 1.07178 20.5773 1.26974 20.7857C1.46769 20.994 1.73618 21.1111 2.01613 21.1111H5.72113C6.00108 21.1111 6.26956 20.994 6.46752 20.7857C6.66547 20.5773 6.77668 20.2947 6.77668 20Z" fill="#FFBC1C"/>
<path d="M35.9839 18.8889H32.2789C31.9989 18.8889 31.7304 19.0059 31.5325 19.2143C31.3345 19.4227 31.2233 19.7053 31.2233 20C31.2233 20.2947 31.3345 20.5773 31.5325 20.7857C31.7304 20.994 31.9989 21.1111 32.2789 21.1111H35.9839C36.2638 21.1111 36.5323 20.994 36.7303 20.7857C36.9282 20.5773 37.0394 20.2947 37.0394 20C37.0394 19.7053 36.9282 19.4227 36.7303 19.2143C36.5323 19.0059 36.2638 18.8889 35.9839 18.8889Z" fill="#FFBC1C"/>
<path d="M8.86665 29.1L6.24887 31.8556C6.07594 32.0681 5.98558 32.3415 5.99584 32.6212C6.0061 32.9008 6.11623 33.1661 6.30422 33.364C6.49221 33.5618 6.74421 33.6778 7.00987 33.6886C7.27553 33.6994 7.53528 33.6043 7.7372 33.4222L10.355 30.6667C10.5279 30.4541 10.6183 30.1807 10.608 29.9011C10.5977 29.6214 10.4876 29.3561 10.2996 29.1583C10.1116 28.9604 9.85964 28.8445 9.59398 28.8337C9.32832 28.8229 9.06858 28.918 8.86665 29.1Z" fill="#FFBC1C"/>
<path d="M29.1333 10.9L31.7511 8.14445C31.924 7.93189 32.0144 7.65847 32.0041 7.37883C31.9939 7.09919 31.8837 6.83393 31.6958 6.63605C31.5078 6.43816 31.2558 6.32224 30.9901 6.31144C30.7244 6.30064 30.4647 6.39575 30.2628 6.57778L27.645 9.33334C27.4721 9.54589 27.3817 9.81931 27.392 10.099C27.4022 10.3786 27.5124 10.6439 27.7003 10.8417C27.8883 11.0396 28.1403 11.1555 28.406 11.1663C28.6716 11.1772 28.9314 11.082 29.1333 10.9Z" fill="#FFBC1C"/>
<path d="M19 31.1111C24.8297 31.1111 29.5556 26.1365 29.5556 20C29.5556 13.8635 24.8297 8.88889 19 8.88889C13.1703 8.88889 8.44446 13.8635 8.44446 20C8.44446 26.1365 13.1703 31.1111 19 31.1111Z" fill="#FFBC1C"/>
</svg>
