<svg width="414" height="138" viewBox="0 0 414 138" fill="none" xmlns="http://www.w3.org/2000/svg">
<path fill-rule="evenodd" clip-rule="evenodd" d="M150.567 -441.3C214.374 -431.421 275.622 -427.387 336.368 -408.601C420.54 -382.57 538.326 -379.713 571.269 -311.193C603.833 -243.462 509.271 -180.454 478.954 -112.028C450.113 -46.9357 460.45 32.6565 398.158 79.5155C333.582 128.092 237.309 145.661 150.567 134.998C69.3732 125.018 17.1312 65.223 -48.2975 24.6358C-111.964 -14.8582 -208.948 -35.2914 -226.703 -99.0318C-244.503 -162.939 -153.717 -211.362 -131.578 -274.354C-108.123 -341.093 -163.231 -434.614 -94.4609 -475.306C-25.6465 -516.023 67.1267 -454.219 150.567 -441.3Z"/>
</svg>
