<svg width="1171" height="129" viewBox="0 0 1171 129" fill="none" xmlns="http://www.w3.org/2000/svg">
<path fill-rule="evenodd" clip-rule="evenodd" d="M607.876 0.445204C708.036 -5.01552 799.405 40.6714 886.954 87.3435C986.133 140.215 1101.13 187.17 1145.29 286.935C1190.65 389.426 1172.33 512.563 1118.96 611.493C1069.59 703.004 954.414 732.833 870.074 797.099C779.771 865.909 723.449 1004.54 607.876 1000.93C491.691 997.302 454.877 842.139 357.878 781.103C253.116 715.182 83.259 739.58 24.5283 633.863C-33.7061 529.039 21.8607 393.385 86.0192 291.749C142.829 201.754 255.971 169.649 351.079 116.559C434.881 69.7805 510.907 5.73197 607.876 0.445204Z" fill="#FF8D28"/>
</svg>
