<svg width="299" height="223" viewBox="0 0 299 223" fill="none" xmlns="http://www.w3.org/2000/svg">
<path fill-rule="evenodd" clip-rule="evenodd" d="M-18.8692 0.265966C37.6686 -2.99629 89.2441 24.2972 138.663 52.1792C194.647 83.7647 259.558 111.816 284.485 171.416C310.092 232.644 299.748 306.206 269.623 365.307C241.757 419.976 176.743 437.796 129.135 476.189C78.1613 517.296 46.3685 600.115 -18.8692 597.959C-84.4529 595.791 -105.233 503.096 -159.987 466.633C-219.123 427.252 -315.002 441.827 -348.154 378.671C-381.026 316.049 -349.66 235.009 -313.444 174.292C-281.376 120.528 -217.511 101.349 -163.825 69.6329C-116.521 41.687 -73.6059 3.4243 -18.8692 0.265966Z" fill="#FF8D28"/>
</svg>
