<svg width="961" height="810" viewBox="0 0 961 810" fill="none" xmlns="http://www.w3.org/2000/svg">
<path fill-rule="evenodd" clip-rule="evenodd" d="M607.876 -205.548C708.036 -211.091 799.405 -164.719 886.954 -117.348C986.133 -63.684 1101.13 -16.0256 1145.29 85.2349C1190.65 189.261 1172.33 314.243 1118.96 414.656C1069.59 507.539 954.414 537.815 870.074 603.044C779.771 672.885 723.449 813.593 607.876 809.93C491.691 806.247 454.877 648.759 357.878 586.808C253.116 519.899 83.259 544.662 24.5283 437.361C-33.7061 330.967 21.8607 193.28 86.0192 90.121C142.829 -1.22313 255.971 -33.8084 351.079 -87.6939C434.881 -135.174 510.907 -200.182 607.876 -205.548Z" />
</svg>
