<svg width="403" height="241" viewBox="0 0 403 241" fill="none" xmlns="http://www.w3.org/2000/svg">
<path fill-rule="evenodd" clip-rule="evenodd" d="M48.3141 -345.728C101.152 -335.731 151.871 -331.649 202.174 -312.638C271.875 -286.295 369.413 -283.403 396.693 -214.063C423.658 -145.52 345.353 -81.7573 320.247 -12.5115C296.365 53.3611 304.925 133.907 253.341 181.327C199.867 230.486 120.144 248.265 48.3141 237.475C-18.921 227.375 -62.1819 166.864 -116.363 125.79C-169.084 85.8229 -249.395 65.1448 -264.097 0.640717C-278.838 -64.0317 -203.659 -113.035 -185.326 -176.782C-165.903 -244.321 -211.537 -338.963 -154.59 -380.141C-97.6056 -421.347 -20.7814 -358.802 48.3141 -345.728Z" />
</svg>
